<svg width="662" height="547" viewBox="0 0 662 547" fill="none" xmlns="http://www.w3.org/2000/svg">
<line x1="110.395" y1="118.796" x2="270.395" y2="258.796" stroke="black"/>
<line x1="576.417" y1="111.528" x2="426.417" y2="259.528" stroke="black"/>
<path d="M576.065 111.672C390.337 -35.298 288.242 -37.8116 110.065 111.672" stroke="black"/>
<line x1="270.565" y1="259.172" x2="270.565" y2="378.172" stroke="black"/>
<line x1="426.565" y1="259.172" x2="426.565" y2="378.172" stroke="black"/>
<line x1="269.734" y1="378.546" x2="109.734" y2="236.546" stroke="black"/>
<line x1="425.722" y1="377.809" x2="575.722" y2="235.809" stroke="black"/>
<path d="M270.065 258.672C332.818 194.463 367.086 200.828 426.065 258.672" stroke="black"/>
<path d="M270.065 377.974C332.818 313.764 367.086 320.129 426.065 377.974" stroke="black"/>
<line x1="576.565" y1="112.172" x2="576.565" y2="236.172" stroke="black"/>
<rect width="1" height="124" transform="translate(110.065 112.172)" fill="white"/>
<line x1="110.565" y1="112.168" x2="111.565" y2="236.168" stroke="black"/>
<path d="M110.77 235.769C135.814 201.487 150.685 186.588 181.77 183.769" stroke="black"/>
<path d="M575.784 236.586C543.911 198.36 527.344 181.176 500.784 185.586" stroke="black"/>
<line x1="4.56572" y1="236.19" x2="0.499721" y2="117.259" stroke="black"/>
<line x1="3.06543" y1="118.672" x2="38.0654" y2="118.672" stroke="black"/>
<line opacity="0.35" x1="5.06543" y1="235.672" x2="40.0654" y2="235.672" stroke="black"/>
<line x1="83.1069" y1="260.554" x2="56.3884" y2="283.162" stroke="black"/>
<line x1="56.4095" y1="282.81" x2="270.41" y2="485.81" stroke="black"/>
<line x1="634.415" y1="283.53" x2="426.415" y2="486.53" stroke="black"/>
<line x1="207.736" y1="428.844" x2="234.076" y2="405.796" stroke="black"/>
<line x1="479.983" y1="431.73" x2="455.705" y2="406.519" stroke="black"/>
<line x1="633.734" y1="283.547" x2="607.519" y2="260.357" stroke="black"/>
<path d="M214.364 139.203L203.055 159.655L203.259 159.884L224.895 151.051L227.104 153.536L201.148 163.744L198.974 161.298L212.156 136.719L214.364 139.203ZM235.622 163.12L216.053 180.513L213.947 178.144L231.032 162.958L230.93 162.843L223.511 160.886L225.919 158.745L233.516 160.75L235.622 163.12Z" fill="black"/>
<path d="M442.361 176.958L463.628 186.648L463.841 186.427L453.358 165.54L455.663 163.146L467.853 188.232L465.582 190.589L440.055 179.352L442.361 176.958ZM477.031 178.702L475.374 177.105L474.555 164.318C474.46 162.819 474.346 161.55 474.212 160.509C474.072 159.463 473.85 158.575 473.547 157.846C473.244 157.104 472.804 156.455 472.226 155.899C471.563 155.261 470.836 154.868 470.043 154.72C469.257 154.566 468.469 154.635 467.678 154.927C466.888 155.219 466.165 155.706 465.509 156.387C464.811 157.112 464.353 157.889 464.133 158.719C463.914 159.537 463.929 160.35 464.179 161.159C464.435 161.962 464.923 162.709 465.641 163.401L463.548 165.574C462.443 164.51 461.718 163.321 461.374 162.007C461.03 160.694 461.047 159.374 461.426 158.046C461.811 156.713 462.533 155.497 463.591 154.398C464.655 153.293 465.831 152.539 467.12 152.135C468.408 151.731 469.682 151.668 470.941 151.945C472.2 152.223 473.314 152.829 474.284 153.763C474.978 154.431 475.535 155.21 475.955 156.101C476.376 156.979 476.695 158.115 476.914 159.509C477.133 160.891 477.303 162.681 477.422 164.879L477.873 173.478L478.021 173.62L486.463 164.854L488.489 166.805L477.031 178.702Z" fill="black"/>
<path d="M16.2359 189.172V162.991H25.3893C27.2132 162.991 28.7174 163.306 29.9021 163.937C31.0867 164.559 31.9688 165.398 32.5484 166.455C33.1279 167.503 33.4177 168.667 33.4177 169.945C33.4177 171.07 33.2174 171.999 32.8168 172.732C32.4248 173.465 31.9049 174.045 31.2572 174.471C30.618 174.897 29.9234 175.212 29.1734 175.417V175.672C29.9745 175.724 30.7799 176.005 31.5896 176.516C32.3992 177.028 33.0768 177.761 33.6222 178.715C34.1677 179.67 34.4404 180.837 34.4404 182.218C34.4404 183.53 34.1421 184.711 33.5455 185.759C32.949 186.807 32.0072 187.638 30.7203 188.252C29.4333 188.866 27.7586 189.172 25.6961 189.172H16.2359ZM19.4063 186.36H25.6961C27.7671 186.36 29.2373 185.959 30.1066 185.158C30.9845 184.349 31.4234 183.369 31.4234 182.218C31.4234 181.332 31.1975 180.513 30.7458 179.763C30.2941 179.005 29.6507 178.4 28.8154 177.948C27.9802 177.488 26.9916 177.258 25.8495 177.258H19.4063V186.36ZM19.4063 174.496H25.287C26.2416 174.496 27.1024 174.309 27.8694 173.934C28.645 173.559 29.2586 173.03 29.7103 172.349C30.1705 171.667 30.4007 170.866 30.4007 169.945C30.4007 168.795 30.0001 167.819 29.199 167.018C28.3978 166.208 27.1279 165.803 25.3893 165.803H19.4063V174.496Z" fill="black"/>
<path d="M80.524 379.092L78.1553 376.76L103.374 364.847L105.706 367.143L94.1894 392.545L91.8208 390.213L101.707 369.018L101.561 368.875L80.524 379.092ZM88.5734 372.665L98.121 382.064L96.1479 384.068L86.6003 374.669L88.5734 372.665Z" fill="black"/>
<path d="M205.224 489.99C203.886 488.653 203.027 487.203 202.647 485.643C202.279 484.082 202.366 482.506 202.908 480.915C203.462 479.324 204.45 477.817 205.872 476.394C207.294 474.972 208.806 473.977 210.409 473.41C212.024 472.844 213.603 472.723 215.146 473.048C216.701 473.373 218.105 474.162 219.359 475.415C220.082 476.138 220.676 476.973 221.14 477.919C221.605 478.865 221.855 479.899 221.891 481.019C221.934 482.134 221.684 483.307 221.142 484.536C220.6 485.766 219.681 487.028 218.385 488.324L217.482 489.228L206.776 478.528L208.62 476.683L217.155 485.215C217.939 484.431 218.481 483.575 218.782 482.647C219.089 481.725 219.134 480.8 218.917 479.872C218.706 478.95 218.215 478.103 217.443 477.332C216.593 476.483 215.647 475.958 214.604 475.76C213.574 475.561 212.558 475.631 211.558 475.968C210.558 476.306 209.675 476.858 208.91 477.623L207.68 478.853C206.632 479.902 205.924 480.971 205.557 482.062C205.201 483.153 205.159 484.214 205.431 485.244C205.708 486.269 206.278 487.212 207.14 488.073C207.701 488.634 208.285 489.062 208.894 489.357C209.515 489.652 210.151 489.805 210.801 489.817C211.458 489.823 212.118 489.675 212.781 489.374L214.264 492.013C213.348 492.496 212.369 492.746 211.326 492.764C210.29 492.776 209.247 492.554 208.198 492.096C207.156 491.632 206.164 490.93 205.224 489.99Z" fill="black"/>
<path d="M500.387 510.695C499.236 511.858 497.925 512.594 496.457 512.902C494.981 513.205 493.456 513.074 491.88 512.509C490.299 511.939 488.769 510.922 487.291 509.458C485.826 508.007 484.803 506.497 484.222 504.927C483.642 503.357 483.502 501.832 483.802 500.354C484.102 498.877 484.834 497.55 485.997 496.375C486.896 495.467 487.758 494.899 488.583 494.672C489.407 494.433 490.148 494.363 490.806 494.462C491.463 494.549 491.991 494.634 492.389 494.716L492.569 494.535L485.701 487.735L487.824 485.591L506.429 504.012L504.378 506.083L502.234 503.961L501.982 504.215C502.08 504.624 502.18 505.166 502.279 505.841C502.373 506.509 502.304 507.263 502.074 508.102C501.837 508.934 501.274 509.799 500.387 510.695ZM498.749 508.498C499.6 507.638 500.096 506.689 500.235 505.652C500.369 504.609 500.189 503.537 499.695 502.436C499.196 501.33 498.419 500.255 497.365 499.212C496.323 498.18 495.262 497.429 494.181 496.958C493.094 496.482 492.038 496.324 491.015 496.486C489.985 496.642 489.038 497.156 488.175 498.028C487.275 498.936 486.759 499.924 486.625 500.991C486.492 502.047 486.672 503.119 487.166 504.207C487.659 505.283 488.396 506.307 489.378 507.279C490.371 508.262 491.423 509.004 492.534 509.505C493.646 509.993 494.737 510.175 495.81 510.049C496.882 509.911 497.861 509.394 498.749 508.498Z" fill="black"/>
<path d="M610.289 383.902L608.018 386.115C607.247 385.593 606.453 385.249 605.636 385.081C604.824 384.908 604.017 384.886 603.214 385.014C602.411 385.131 601.639 385.383 600.899 385.771C600.159 386.16 599.477 386.657 598.855 387.264C597.719 388.37 596.971 389.66 596.608 391.132C596.252 392.598 596.347 394.154 596.892 395.8C597.444 397.44 598.511 399.072 600.093 400.696C601.676 402.319 603.28 403.428 604.905 404.021C606.537 404.608 608.09 404.743 609.565 404.424C611.046 404.099 612.354 403.384 613.489 402.277C614.112 401.671 614.626 401.002 615.033 400.272C615.441 399.542 615.715 398.78 615.858 397.986C616.001 397.181 615.996 396.37 615.844 395.554C615.692 394.727 615.368 393.924 614.871 393.146L617.142 390.933C617.905 392.058 618.429 393.219 618.715 394.416C619.002 395.613 619.068 396.804 618.914 397.989C618.754 399.168 618.39 400.303 617.822 401.393C617.259 402.476 616.505 403.479 615.559 404.401C613.96 405.96 612.158 406.955 610.151 407.388C608.145 407.82 606.082 407.664 603.964 406.92C601.846 406.176 599.824 404.815 597.896 402.837C595.969 400.86 594.66 398.803 593.97 396.667C593.28 394.53 593.177 392.465 593.661 390.47C594.144 388.475 595.185 386.699 596.784 385.14C597.73 384.218 598.752 383.49 599.85 382.955C600.954 382.415 602.1 382.083 603.289 381.96C604.472 381.83 605.658 381.924 606.847 382.24C608.031 382.551 609.178 383.105 610.289 383.902Z" fill="black"/>
<line x1="269.75" y1="485.865" x2="296.906" y2="463.785" stroke="black"/>
<line x1="400.393" y1="463.795" x2="426.815" y2="486.75" stroke="black"/>
</svg>
